<?xml version="1.0" encoding="UTF-8" standalone="no"?>
<!-- Created with Inkscape (http://www.inkscape.org/) -->

<svg
   width="600"
   height="600"
   viewBox="0 0 158.75 158.75"
   version="1.1"
   id="svg1"
   xml:space="preserve"
   xmlns="http://www.w3.org/2000/svg"
   xmlns:svg="http://www.w3.org/2000/svg"><defs
     id="defs1" /><g
     id="layer1"
     transform="translate(3644.5782,-2327.8434)"><g
       id="g622"
       transform="matrix(0.23884665,0,0,0.23884665,-3629.9301,2454.9908)"><path
         style="fill:#ffffff;fill-opacity:0.89775;stroke-width:8.24457;-inkscape-stroke:none"
         id="path607"
         d="M 400.88411,-200.01277 A 129.605,129.605 0 0 1 272.06173,-70.410139 129.605,129.605 0 0 1 141.68357,-198.44758 129.605,129.605 0 0 1 268.93139,-329.5965 129.605,129.605 0 0 1 400.8463,-203.14293" /><path
         id="path608"
         style="font-variation-settings:normal;opacity:1;vector-effect:none;fill:#d1d1d1;fill-opacity:1;stroke-width:1.97556;stroke-linecap:butt;stroke-linejoin:miter;stroke-miterlimit:4;stroke-dasharray:none;stroke-dashoffset:0;stroke-opacity:1;-inkscape-stroke:none;stop-color:#000000;stop-opacity:1"
         d="m 179.11107,-291.13086 a 129.605,129.605 0 0 0 -37.99458,92.80571 129.605,129.605 0 0 0 86.41178,120.291877 208.66405,208.66405 0 0 1 -60.08006,-143.298227 208.66405,208.66405 0 0 1 11.66286,-69.79936 z" /><path
         style="fill:#d0d0d0;fill-opacity:0.988235;stroke-width:1.97556;-inkscape-stroke:none"
         id="path609"
         d="m 246.74816,-216.38303 a 31.055901,31.055901 0 0 1 -30.86837,31.05534 31.055901,31.055901 0 0 1 -31.24117,-30.68028 31.055901,31.055901 0 0 1 30.49108,-31.42586 31.055901,31.055901 0 0 1 31.6094,30.30076" /><path
         style="fill:#d1d1d1;fill-opacity:1;stroke-width:1.22703;-inkscape-stroke:none"
         id="path610"
         d="m 315.48126,-133.01593 a 19.289,19.289 0 0 1 -19.17252,19.28865 19.289,19.289 0 0 1 -19.40407,-19.0557 19.289,19.289 0 0 1 18.93818,-19.51878 19.289,19.289 0 0 1 19.63278,18.81997" /><path
         style="fill:#d1d1d1;fill-opacity:1;stroke-width:0.762115;-inkscape-stroke:none"
         id="path611"
         d="m 376.66409,-211.99327 a 11.9805,11.9805 0 0 1 -11.90815,11.98028 11.9805,11.9805 0 0 1 -12.05197,-11.8356 11.9805,11.9805 0 0 1 11.7626,-12.12322 11.9805,11.9805 0 0 1 12.19403,11.68919" /><path
         style="fill:#d1d1d1;fill-opacity:1;stroke-width:0.47328;-inkscape-stroke:none"
         id="path612"
         d="m 198.12332,-254.87892 a 7.4400001,7.4400001 0 0 1 -7.39507,7.43986 7.4400001,7.4400001 0 0 1 -7.48439,-7.35001 7.4400001,7.4400001 0 0 1 7.30469,-7.52863 7.4400001,7.4400001 0 0 1 7.5726,7.25909" /><path
         style="fill:#d1d1d1;fill-opacity:1;stroke-width:1.97556;-inkscape-stroke:none"
         id="path613"
         d="m 329.83251,-277.31311 a 31.055901,31.055901 0 0 1 -30.86837,31.05533 31.055901,31.055901 0 0 1 -31.24116,-30.68028 31.055901,31.055901 0 0 1 30.49107,-31.42586 31.055901,31.055901 0 0 1 31.6094,30.30076" /><path
         style="fill:#ffffff;fill-opacity:1;stroke-width:1.31119;-inkscape-stroke:none"
         id="path614"
         d="m 210.12514,-156.66237 a 20.611967,20.611967 0 0 1 -20.48751,20.61159 20.611967,20.611967 0 0 1 -20.73493,-20.36267 20.611967,20.611967 0 0 1 20.23709,-20.8575 20.611967,20.611967 0 0 1 20.97933,20.11077" /><path
         style="fill:#d1d1d1;fill-opacity:1;stroke-width:1.22703;-inkscape-stroke:none"
         id="path615"
         d="m 208.80217,-156.66237 a 19.289,19.289 0 0 1 -19.17253,19.28865 19.289,19.289 0 0 1 -19.40406,-19.0557 19.289,19.289 0 0 1 18.93818,-19.51878 19.289,19.289 0 0 1 19.63278,18.81997" /><path
         style="fill:#d1d1d1;fill-opacity:1;stroke-width:0.762115;-inkscape-stroke:none"
         id="path616"
         d="m 240.85111,-114.1003 a 11.9805,11.9805 0 0 1 -11.90816,11.98028 11.9805,11.9805 0 0 1 -12.05197,-11.8356 11.9805,11.9805 0 0 1 11.76261,-12.12322 11.9805,11.9805 0 0 1 12.19402,11.68919" /><path
         style="fill:#f2f2f2;fill-opacity:1;stroke-width:0.557432;-inkscape-stroke:none"
         id="path617"
         d="m 173.98324,-223.51733 a 8.7628679,8.7628679 0 0 1 -8.70996,8.7627 8.7628679,8.7628679 0 0 1 -8.81514,-8.65688 8.7628679,8.7628679 0 0 1 8.60349,-8.86725 8.7628679,8.7628679 0 0 1 8.91905,8.54979" /><path
         style="fill:#d1d1d1;fill-opacity:1;stroke-width:0.47328;-inkscape-stroke:none"
         id="path618"
         d="m 172.66037,-223.51733 a 7.4400001,7.4400001 0 0 1 -7.39508,7.43986 7.4400001,7.4400001 0 0 1 -7.48438,-7.35001 7.4400001,7.4400001 0 0 1 7.30469,-7.52863 7.4400001,7.4400001 0 0 1 7.5726,7.25909" /><path
         style="fill:#d1d1d1;fill-opacity:1;stroke-width:0.294025;-inkscape-stroke:none"
         id="path619"
         d="m 303.81958,-232.87955 a 4.6220999,4.6220999 0 0 1 -4.59419,4.62202 4.6220999,4.6220999 0 0 1 -4.64967,-4.5662 4.6220999,4.6220999 0 0 1 4.53803,-4.67716 4.6220999,4.6220999 0 0 1 4.70448,4.50971" /><path
         style="fill:#d1d1d1;fill-opacity:1;stroke-width:0.182623;-inkscape-stroke:none"
         id="path620"
         d="m 269.95999,-155.43478 a 2.8708501,2.8708501 0 0 1 -2.85351,2.87079 2.8708501,2.8708501 0 0 1 -2.88798,-2.83612 2.8708501,2.8708501 0 0 1 2.81864,-2.90505 2.8708501,2.8708501 0 0 1 2.92201,2.80104" /><path
         style="fill:#d1d1d1;fill-opacity:1;stroke-width:0.113422;-inkscape-stroke:none"
         id="path621"
         d="m 258.18711,-286.66754 a 1.783,1.783 0 0 1 -1.77223,1.78297 1.783,1.783 0 0 1 -1.79364,-1.76144 1.783,1.783 0 0 1 1.75058,-1.80424 1.783,1.783 0 0 1 1.81477,1.73965" /><path
         style="fill:#d1d1d1;fill-opacity:1;stroke:#f9f9f9;stroke-width:0.843677;-inkscape-stroke:none"
         id="path622"
         d="m 242.13329,-114.10029 a 13.262667,13.262667 0 0 1 -13.18258,13.26243 13.262667,13.262667 0 0 1 -13.34179,-13.10226 13.262667,13.262667 0 0 1 13.02145,-13.42066 13.262667,13.262667 0 0 1 13.49905,12.94018" /></g></g></svg>
