<?xml version="1.0" encoding="UTF-8" standalone="no"?>
<!-- Created with Inkscape (http://www.inkscape.org/) -->

<svg
   width="600"
   height="600"
   viewBox="0 0 158.75 158.75"
   version="1.1"
   id="svg1"
   xml:space="preserve"
   xmlns="http://www.w3.org/2000/svg"
   xmlns:svg="http://www.w3.org/2000/svg"><defs
     id="defs1" /><g
     id="layer1"
     transform="translate(3644.5782,-2327.8434)"><g
       id="g591"
       transform="matrix(0.38537769,0,0,0.38537769,-2848.6104,1832.3692)"><path
         id="path589"
         style="fill:#ffffff;fill-opacity:0.89775;stroke-width:1.36133;-inkscape-stroke:none"
         d="m -1864.196,1386.4142 c 0,58.3015 -46.936,105.2375 -105.2375,105.2375 58.3015,0 105.2375,46.9355 105.2375,105.237 0,-58.3015 46.936,-105.237 105.2375,-105.237 -58.3015,0 -105.2375,-46.936 -105.2375,-105.2375 z" /><g
         id="g589"><path
           id="rect579"
           style="fill:#ffffff;fill-opacity:0.89775;stroke-width:0.289366;-inkscape-stroke:none"
           d="m -1946.8186,1544.7544 c 0,9.088 -7.3161,16.4042 -16.4041,16.4042 9.088,0 16.4041,7.3163 16.4041,16.4043 0,-9.088 7.3163,-16.4043 16.4042,-16.4043 -9.0879,0 -16.4042,-7.3162 -16.4042,-16.4042 z" /><path
           id="path584"
           style="fill:#ffffff;fill-opacity:0.89775;stroke-width:0.289366;-inkscape-stroke:none"
           d="m -1911.1944,1513.1052 c 0,9.088 -7.3161,16.4042 -16.4041,16.4042 9.088,0 16.4041,7.3163 16.4041,16.4043 0,-9.088 7.3163,-16.4043 16.4042,-16.4043 -9.0879,0 -16.4042,-7.3162 -16.4042,-16.4042 z" /><path
           id="path585"
           style="fill:#ffffff;fill-opacity:0.89775;stroke-width:0.525186;-inkscape-stroke:none"
           d="m -1792.0206,1509.0046 c 0,23.5685 -18.9739,42.5427 -42.5424,42.5427 23.5685,0 42.5424,18.9739 42.5424,42.5424 0,-23.5685 18.9739,-42.5424 42.5423,-42.5424 -23.5684,0 -42.5423,-18.9742 -42.5423,-42.5427 z" /><path
           id="path586"
           style="fill:#ffffff;fill-opacity:0.89775;stroke-width:0.466089;-inkscape-stroke:none"
           d="m -1816.9091,1408.3886 c 0,14.6382 -11.7843,26.4227 -26.4225,26.4227 14.6382,0 26.4225,11.7845 26.4225,26.4227 0,-14.6382 11.7846,-26.4227 26.4227,-26.4227 -14.6381,0 -26.4227,-11.7845 -26.4227,-26.4227 z" /><path
           id="path588"
           style="fill:#ffffff;fill-opacity:0.89775;stroke-width:0.466089;-inkscape-stroke:none"
           d="m -1934.5773,1424.6229 c 0,14.6382 -11.7843,26.4227 -26.4225,26.4227 14.6382,0 26.4225,11.7845 26.4225,26.4227 0,-14.6382 11.7846,-26.4227 26.4227,-26.4227 -14.6381,0 -26.4227,-11.7845 -26.4227,-26.4227 z" /></g></g></g></svg>
