<?xml version="1.0" encoding="UTF-8" standalone="no"?>
<!-- Created with Inkscape (http://www.inkscape.org/) -->

<svg
   width="190"
   height="190"
   viewBox="0 0 50.270835 50.270834"
   version="1.1"
   id="svg1"
   inkscape:version="1.4 (86a8ad7, 2024-10-11)"
   sodipodi:docname="Stellar-Background.svg"
   xml:space="preserve"
   inkscape:export-filename="Sun-Stars-01.svg"
   inkscape:export-xdpi="96"
   inkscape:export-ydpi="96"
   xmlns:inkscape="http://www.inkscape.org/namespaces/inkscape"
   xmlns:sodipodi="http://sodipodi.sourceforge.net/DTD/sodipodi-0.dtd"
   xmlns="http://www.w3.org/2000/svg"
   xmlns:svg="http://www.w3.org/2000/svg"><sodipodi:namedview
     id="namedview1"
     pagecolor="#7a7a7a"
     bordercolor="#000000"
     borderopacity="0.25"
     inkscape:showpageshadow="2"
     inkscape:pageopacity="0.0"
     inkscape:pagecheckerboard="0"
     inkscape:deskcolor="#afafaf"
     inkscape:document-units="px"
     inkscape:zoom="2.8284271"
     inkscape:cx="229.8097"
     inkscape:cy="68.235804"
     inkscape:window-width="1920"
     inkscape:window-height="1009"
     inkscape:window-x="-8"
     inkscape:window-y="-8"
     inkscape:window-maximized="1"
     inkscape:current-layer="layer1"
     showguides="true"><sodipodi:guide
       position="1565.3004,2850.1732"
       orientation="1,0"
       id="guide248"
       inkscape:locked="false" /><sodipodi:guide
       position="1565.3004,2850.1732"
       orientation="0,-1"
       id="guide249"
       inkscape:locked="false" /><sodipodi:guide
       position="-31.489546,2579.5138"
       orientation="0,-1"
       id="guide523"
       inkscape:locked="false" /><sodipodi:guide
       position="-194.65468,2500.2979"
       orientation="0,-1"
       id="guide525"
       inkscape:locked="false" /></sodipodi:namedview><defs
     id="defs1"><inkscape:path-effect
       effect="simplify"
       id="path-effect566"
       is_visible="true"
       lpeversion="1.3"
       threshold="82"
       steps="1"
       smooth_angles="360"
       helper_size="0"
       simplify_individual_paths="false"
       simplify_just_coalesce="false" /><inkscape:path-effect
       effect="simplify"
       id="path-effect564"
       is_visible="true"
       lpeversion="1.3"
       threshold="82"
       steps="1"
       smooth_angles="360"
       helper_size="0"
       simplify_individual_paths="false"
       simplify_just_coalesce="false" /><inkscape:path-effect
       effect="simplify"
       id="path-effect560"
       is_visible="true"
       lpeversion="1.3"
       threshold="82"
       steps="1"
       smooth_angles="360"
       helper_size="0"
       simplify_individual_paths="false"
       simplify_just_coalesce="false" /><inkscape:path-effect
       effect="simplify"
       id="path-effect558"
       is_visible="true"
       lpeversion="1.3"
       threshold="82"
       steps="1"
       smooth_angles="360"
       helper_size="0"
       simplify_individual_paths="false"
       simplify_just_coalesce="false" /><inkscape:path-effect
       effect="simplify"
       id="path-effect556"
       is_visible="true"
       lpeversion="1.3"
       threshold="82"
       steps="1"
       smooth_angles="360"
       helper_size="0"
       simplify_individual_paths="false"
       simplify_just_coalesce="false" /><inkscape:path-effect
       effect="simplify"
       id="path-effect555"
       is_visible="true"
       lpeversion="1.3"
       threshold="82"
       steps="1"
       smooth_angles="360"
       helper_size="0"
       simplify_individual_paths="false"
       simplify_just_coalesce="false" /><inkscape:path-effect
       effect="simplify"
       id="path-effect554"
       is_visible="true"
       lpeversion="1.3"
       threshold="82"
       steps="1"
       smooth_angles="360"
       helper_size="0"
       simplify_individual_paths="false"
       simplify_just_coalesce="false" /><inkscape:path-effect
       effect="simplify"
       id="path-effect553"
       is_visible="true"
       lpeversion="1.3"
       threshold="82"
       steps="1"
       smooth_angles="360"
       helper_size="0"
       simplify_individual_paths="false"
       simplify_just_coalesce="false" /><inkscape:path-effect
       effect="simplify"
       id="path-effect550"
       is_visible="true"
       lpeversion="1.3"
       threshold="82"
       steps="1"
       smooth_angles="360"
       helper_size="0"
       simplify_individual_paths="false"
       simplify_just_coalesce="false" /><inkscape:path-effect
       effect="simplify"
       id="path-effect549"
       is_visible="true"
       lpeversion="1.3"
       threshold="82"
       steps="1"
       smooth_angles="360"
       helper_size="0"
       simplify_individual_paths="false"
       simplify_just_coalesce="false" /><inkscape:path-effect
       effect="simplify"
       id="path-effect548"
       is_visible="true"
       lpeversion="1.3"
       threshold="82"
       steps="1"
       smooth_angles="360"
       helper_size="0"
       simplify_individual_paths="false"
       simplify_just_coalesce="false" /><inkscape:path-effect
       effect="simplify"
       id="path-effect182"
       is_visible="true"
       lpeversion="1.3"
       threshold="82"
       steps="1"
       smooth_angles="360"
       helper_size="0"
       simplify_individual_paths="false"
       simplify_just_coalesce="false" /></defs><g
     inkscape:label="Ebene 1"
     inkscape:groupmode="layer"
     id="layer1"
     transform="translate(3124.6118,-2414.1711)"><rect
       style="font-variation-settings:normal;opacity:1;vector-effect:none;fill:#ffffff;fill-opacity:1;stroke:none;stroke-width:1.065;stroke-linecap:round;stroke-linejoin:round;stroke-miterlimit:4;stroke-dasharray:none;stroke-dashoffset:0;stroke-opacity:1;-inkscape-stroke:none"
       id="rect756"
       width="50.270836"
       height="50.270836"
       x="-3124.6118"
       y="2414.1711" /><g
       id="g704"
       transform="matrix(0.05710332,0,0,0.05710332,-2957.1308,2355.2196)"
       style="opacity:1;fill:#f2f2f2;fill-opacity:0.89775;font-variation-settings:normal;vector-effect:none;stroke-width:5.10975542;stroke-linecap:butt;stroke-linejoin:miter;stroke-miterlimit:4;stroke-dasharray:none;stroke-dashoffset:0;stroke-opacity:1;-inkscape-stroke:none;stop-color:#000000;stop-opacity:1"><path
         id="path703"
         style="fill:#f2f2f2;fill-opacity:0.89775;stroke-width:5.10975542;-inkscape-stroke:none;font-variation-settings:normal;vector-effect:none;stroke-linecap:butt;stroke-linejoin:miter;stroke-miterlimit:4;stroke-dasharray:none;stroke-dashoffset:0;stroke-opacity:1;stop-color:#000000;stop-opacity:1"
         d="m -2436.2619,1304.4904 a 80.747956,80.747956 0 0 0 -14.9996,6.9096 80.747956,80.747956 0 0 0 -36.4655,50.4781 50.15401,50.15401 0 0 0 -1.1653,-3.2153 50.15401,50.15401 0 0 0 -26.5482,-26.7736 50.15401,50.15401 0 0 0 -11.976,-3.3398 50.15401,50.15401 0 0 1 15.9437,15.9959 80.747956,80.747956 0 0 0 -16.661,-10.7006 80.747956,80.747956 0 0 0 -15.6109,-5.3889 80.747956,80.747956 0 0 1 22.4709,31.5805 19.348414,19.348414 0 0 0 -2.2789,17.8801 19.348414,19.348414 0 0 1 -1.6371,-0.6594 50.15401,50.15401 0 0 1 -12.3672,-30.5459 50.15401,50.15401 0 0 0 -2.9833,12.07 50.15401,50.15401 0 0 0 -0.034,10.2273 50.15401,50.15401 0 0 0 0,5e-4 19.348414,19.348414 0 0 0 0,0.01 19.348414,19.348414 0 0 0 -0.6165,2.4939 50.154009,50.154009 0 0 0 -3.3667,-3.2582 50.154009,50.154009 0 0 0 -6.8001,-4.886 50.154009,50.154009 0 0 1 7.4424,15.8817 80.747956,80.747956 0 0 0 -28.6158,-9.849 80.747955,80.747955 0 0 1 -24.1019,-41.8532 80.747955,80.747955 0 0 0 -2.653,16.3003 80.747955,80.747955 0 0 0 3.085,25.663 80.747956,80.747956 0 0 0 -10.5776,2.482 80.747956,80.747956 0 0 1 12.4085,3.3269 80.747955,80.747955 0 0 0 16.181,26.601 80.747955,80.747955 0 0 0 0.095,0.095 19.348414,19.348414 0 0 1 -5.4544,-5.0162 19.348414,19.348414 0 0 0 -0.479,4.0328 50.154009,50.154009 0 0 0 -1.8749,-0.2816 50.154009,50.154009 0 0 0 -32.2631,7.7685 50.154009,50.154009 0 0 0 -9.463,8.0646 50.154009,50.154009 0 0 1 4.8348,-1.8547 50.154009,50.154009 0 0 1 47.408,9.0475 19.348414,19.348414 0 0 1 -3.8106,1.5999 19.348414,19.348414 0 0 1 -19.9755,-5.9278 19.348414,19.348414 0 0 0 -0.2011,2.7637 19.348414,19.348414 0 0 0 0.784,5.4715 19.348414,19.348414 0 0 0 16.2398,13.6767 50.154009,50.154009 0 0 1 -35.8867,-6.2177 50.154009,50.154009 0 0 0 8.3416,9.2196 50.154009,50.154009 0 0 0 14.3366,8.4987 50.15401,50.15401 0 0 0 -8.909,1.6324 50.15401,50.15401 0 0 0 -7.8114,3.0153 50.15401,50.15401 0 0 1 15.7158,1.9498 80.747955,80.747955 0 0 0 -14.0756,9.4108 80.747956,80.747956 0 0 1 -5.0519,-1.0495 80.747956,80.747956 0 0 0 3.1652,2.5869 80.747955,80.747955 0 0 0 -8.3287,8.5643 80.747956,80.747956 0 0 1 -46.1869,-3.1848 80.747956,80.747956 0 0 0 12.1879,11.144 80.747956,80.747956 0 0 0 22.0974,11.1259 80.747955,80.747955 0 0 0 -1.4268,3.4009 80.747955,80.747955 0 0 0 -1.7808,5.2183 80.747955,80.747955 0 0 1 4.7992,-4.5212 80.747955,80.747955 0 0 1 3.2965,-2.6329 80.747956,80.747956 0 0 0 26.111,2.3326 19.348414,19.348414 0 0 0 3.7424,2.9058 50.15401,50.15401 0 0 0 -13.0565,33.3747 50.15401,50.15401 0 0 0 1.5684,12.3336 50.15401,50.15401 0 0 1 34.6361,-39.7851 19.348414,19.348414 0 0 1 -0.7633,4.07 19.348414,19.348414 0 0 1 -15.8967,13.4705 19.348414,19.348414 0 0 0 2.2025,1.6815 19.348414,19.348414 0 0 0 5.0079,2.3389 19.348414,19.348414 0 0 0 20.3456,-6.1252 50.15401,50.15401 0 0 1 -0.2036,0.4977 50.15401,50.15401 0 0 0 -11.2361,15.522 50.15401,50.15401 0 0 0 -0.8423,2.02 50.15401,50.15401 0 0 1 -12.5775,8.6104 50.15401,50.15401 0 0 0 12.2819,-1.9327 50.15401,50.15401 0 0 0 18.124,-9.8087 80.747956,80.747956 0 0 1 -41.4848,62.5 80.747956,80.747956 0 0 0 16.3912,-2.0159 80.747956,80.747956 0 0 0 32.1257,-16.198 80.747956,80.747956 0 0 0 3.4711,7.7675 80.747956,80.747956 0 0 0 9.2465,13.6834 80.747956,80.747956 0 0 1 -1.156,-6.491 80.747956,80.747956 0 0 1 1.1555,-28.0397 80.747956,80.747956 0 0 0 5.257,-7.706 50.15401,50.15401 0 0 0 17.2703,37.0019 50.15401,50.15401 0 0 0 10.3911,6.8265 50.15401,50.15401 0 0 1 -2.8893,-3.7662 50.15401,50.15401 0 0 1 -8.8444,-31.7619 19.348414,19.348414 0 0 0 0.6398,-0.3984 19.348414,19.348414 0 0 0 7.3949,-10.3379 19.348414,19.348414 0 0 1 -1.5172,18.1441 19.348414,19.348414 0 0 0 2.7094,-0.5808 19.348414,19.348414 0 0 0 5.0327,-2.2846 19.348414,19.348414 0 0 0 8.6047,-19.4541 50.15401,50.15401 0 0 1 4.0571,36.2267 50.15401,50.15401 0 0 0 6.5153,-10.589 50.15401,50.15401 0 0 0 3.7264,-12.6008 50.15401,50.15401 0 0 0 2.5404,4.8736 50.15401,50.15401 0 0 0 4.963,6.7443 50.15401,50.15401 0 0 1 -0.8557,-3.0996 50.15401,50.15401 0 0 1 -1.2909,-14.8027 80.747956,80.747956 0 0 0 23.8926,18.1679 80.747956,80.747956 0 0 1 10.2815,47.7671 80.747956,80.747956 0 0 0 7.5489,-14.6885 80.747956,80.747956 0 0 0 5.0623,-25.7028 80.747956,80.747956 0 0 0 11.2504,0.9214 80.747956,80.747956 0 0 1 -5.6833,-3.3414 80.747956,80.747956 0 0 1 -5.6167,-3.9802 80.747956,80.747956 0 0 0 -7.3614,-30.0343 50.15401,50.15401 0 0 0 0.037,0.022 50.15401,50.15401 0 0 0 0.7927,0.4625 19.348414,19.348414 0 0 1 3.315,5.9811 19.348414,19.348414 0 0 0 1.5395,-3.3223 50.15401,50.15401 0 0 0 34.5606,3.2933 50.15401,50.15401 0 0 0 11.4882,-4.7547 50.15401,50.15401 0 0 1 -45.3889,-19.8293 50.15401,50.15401 0 0 1 -2.0914,-3.1182 19.348414,19.348414 0 0 1 4.1176,-0.3472 19.348414,19.348414 0 0 1 17.1752,11.7972 19.348414,19.348414 0 0 0 1.0433,-2.5673 19.348414,19.348414 0 0 0 0.9411,-5.4467 19.348414,19.348414 0 0 0 -11.1477,-18.0067 50.15401,50.15401 0 0 1 32.1371,16.9675 50.15401,50.15401 0 0 0 -5.0933,-11.342 50.15401,50.15401 0 0 0 -18.3761,-17.4475 80.747956,80.747956 0 0 0 51.6124,-21.2762 80.747956,80.747956 0 0 0 10.7714,-12.5181 80.747956,80.747956 0 0 1 -38.07,9.2372 80.747956,80.747956 0 0 1 -2.0103,-0.096 50.15401,50.15401 0 0 0 2.9472,-0.6718 50.15401,50.15401 0 0 0 7.8589,-2.8898 50.15401,50.15401 0 0 1 -23.7546,-5.488 19.348414,19.348414 0 0 1 19.3223,-5.4565 19.348414,19.348414 0 0 0 -3.3827,-4.9723 80.747956,80.747956 0 0 1 62.8628,-1.4806 80.747956,80.747956 0 0 0 -12.0075,-11.3378 80.747956,80.747956 0 0 0 -54.1848,-15.7334 80.747956,80.747956 0 0 0 -6.2689,0.7493 50.15401,50.15401 0 0 0 17.4971,-36.915 50.15401,50.15401 0 0 0 -1.3699,-12.3574 50.15401,50.15401 0 0 1 -31.6761,38.0788 50.15401,50.15401 0 0 1 -3.5771,1.1415 19.348414,19.348414 0 0 1 0.091,-0.8015 50.15401,50.15401 0 0 0 14.1898,-12.6225 50.15401,50.15401 0 0 0 2.5761,-3.8313 19.348414,19.348414 0 0 1 0.065,-0.011 19.348414,19.348414 0 0 0 -0.038,-0.032 50.15401,50.15401 0 0 0 1.8324,-3.2272 50.15401,50.15401 0 0 1 -3.0106,2.2453 19.348414,19.348414 0 0 0 -0.9597,-0.7023 19.348414,19.348414 0 0 0 -4.9697,-2.4195 19.348414,19.348414 0 0 0 -10.1255,-0.3927 80.747956,80.747956 0 0 1 3.2407,-6.8415 80.747956,80.747956 0 0 1 6.969,-10.6665 50.15401,50.15401 0 0 1 4.7584,-2.5487 50.15401,50.15401 0 0 0 -2.9833,0.1711 80.747956,80.747956 0 0 1 39.8942,-26.3447 80.747956,80.747956 0 0 0 -16.4377,-1.5926 80.747956,80.747956 0 0 0 -52.248,20.7165 80.747956,80.747956 0 0 0 -8.4827,-33.9131 80.747956,80.747956 0 0 0 -9.0263,-13.8297 80.747956,80.747956 0 0 1 1.3224,9.123 50.15401,50.15401 0 0 0 -2.8531,-2.9389 50.15401,50.15401 0 0 0 -2.8592,-2.4949 80.747956,80.747956 0 0 1 16.7695,-26.6852 z m -16.832,26.8578 a 50.15401,50.15401 0 0 1 5.5087,21.8405 80.747956,80.747956 0 0 1 -8.0057,26.6387 80.747956,80.747956 0 0 1 -0.2651,0.5214 80.747956,80.747956 0 0 1 -2.4412,-15.1211 19.348414,19.348414 0 0 1 3.9785,-5.7061 19.348414,19.348414 0 0 0 -2.7714,-0.022 19.348414,19.348414 0 0 0 -1.3115,0.1468 80.747956,80.747956 0 0 1 5.3077,-28.2985 z m -43.3147,45.3931 a 90.036903,90.036903 0 0 1 71.7718,33.926 90.036902,90.036902 0 0 1 0.03,0.039 90.036902,90.036902 0 0 1 1.7229,2.191 90.036902,90.036902 0 0 1 0.074,0.1034 90.036903,90.036903 0 0 1 6.2823,9.6816 90.036902,90.036902 0 0 1 0.045,0.079 90.036902,90.036902 0 0 1 0.5013,0.8661 90.036902,90.036902 0 0 1 0.025,0.047 90.036903,90.036903 0 0 1 3.1316,6.1464 90.036902,90.036902 0 0 1 0.1813,0.4537 90.036903,90.036903 0 0 1 0.4067,1.0196 90.036902,90.036902 0 0 1 2.0232,5.0663 90.036902,90.036902 0 0 1 0,0.01 90.036903,90.036903 0 0 1 1.9581,6.1139 50.15401,50.15401 0 0 0 0.01,0 90.036902,90.036902 0 0 1 1.5963,6.6419 90.036903,90.036903 0 0 1 0.032,0.1313 90.036903,90.036903 0 0 1 0.8697,5.1154 90.036902,90.036902 0 0 1 0,0.01 90.036902,90.036902 0 0 1 0.3131,2.481 19.348414,19.348414 0 0 0 -0.051,0.013 90.036902,90.036902 0 0 1 0.3198,3.5957 90.036903,90.036903 0 0 1 0,0.01 90.036903,90.036903 0 0 1 0.3932,4.1139 l 0.026,2.1746 a 90.036903,90.036903 0 0 1 -2.0784,18.1586 90.036902,90.036902 0 0 1 -0.02,0.095 90.036902,90.036902 0 0 1 -0.247,1.1518 90.036902,90.036902 0 0 1 -0.085,0.3783 90.036903,90.036903 0 0 1 0,5e-4 90.036903,90.036903 0 0 1 -5.0601,15.9107 90.036903,90.036903 0 0 0 3.298,-8.8785 90.036902,90.036902 0 0 1 -1.5808,4.9066 90.036902,90.036902 0 0 1 -1.7172,3.9719 90.036903,90.036903 0 0 1 -9.9855,17.2336 90.036902,90.036902 0 0 1 -0.817,1.1384 90.036902,90.036902 0 0 1 -0.511,0.6449 90.036903,90.036903 0 0 1 -7.0544,8.1158 90.036902,90.036902 0 0 1 0,0.01 90.036902,90.036902 0 0 1 -0.8155,0.8506 90.036902,90.036902 0 0 1 -0.524,0.4971 90.036903,90.036903 0 0 1 -7.766,6.7758 90.036902,90.036902 0 0 1 -0.37,0.2977 90.036902,90.036902 0 0 1 -0.4527,0.3483 90.036902,90.036902 0 0 1 -0.6676,0.478 90.036903,90.036903 0 0 1 -31.6565,15.043 90.036902,90.036902 0 0 1 -1.31,0.3157 90.036902,90.036902 0 0 1 -1.7968,0.4331 90.036902,90.036902 0 0 1 -2.1373,0.4206 90.036903,90.036903 0 0 1 -16.1262,1.7374 90.036903,90.036903 0 0 1 -18.3394,-2.0035 90.036902,90.036902 0 0 1 -0.155,-0.029 90.036902,90.036902 0 0 1 -0.1814,-0.04 90.036902,90.036902 0 0 1 -0.262,-0.057 90.036903,90.036903 0 0 1 -24.275,-8.8796 90.036902,90.036902 0 0 1 -0.053,-0.026 90.036902,90.036902 0 0 1 -0.038,-0.02 90.036902,90.036902 0 0 1 -0.036,-0.021 90.036903,90.036903 0 0 1 -40.6606,-45.7724 90.036901,90.036901 0 0 1 -0.3948,-0.9493 90.036901,90.036901 0 0 1 -0.2966,-0.8454 90.036903,90.036903 0 0 1 -5.8798,-30.3025 90.036903,90.036903 0 0 1 0.5395,-9.123 90.036903,90.036903 0 0 0 -0.2966,5.0116 90.036902,90.036902 0 0 1 0.057,-1.9363 90.036902,90.036902 0 0 1 0.2398,-3.0753 90.036903,90.036903 0 0 1 4.3956,-20.7217 90.036901,90.036901 0 0 1 0.1783,-0.5581 90.036901,90.036901 0 0 1 0.5416,-1.4542 90.036903,90.036903 0 0 1 4.2607,-9.8444 90.036901,90.036901 0 0 1 0.2088,-0.4315 90.036901,90.036901 0 0 1 0.6413,-1.1782 90.036903,90.036903 0 0 1 1.3271,-2.5135 19.348414,19.348414 0 0 1 -0.012,0.01 19.348414,19.348414 0 0 1 -0.012,0.01 90.036901,90.036901 0 0 1 0.1519,-0.2594 90.036903,90.036903 0 0 1 4.038,-6.2725 90.036902,90.036902 0 0 1 0,-0.01 90.036902,90.036902 0 0 1 0.01,-0.01 90.036901,90.036901 0 0 1 0.2532,-0.3685 90.036902,90.036902 0 0 1 0.5932,-0.7968 90.036903,90.036903 0 0 1 26.5591,-24.5241 90.036901,90.036901 0 0 1 1.3824,-0.8475 90.036901,90.036901 0 0 1 2.8039,-1.5358 19.348414,19.348414 0 0 0 0,0.01 90.036902,90.036902 0 0 1 0,-5e-4 90.036903,90.036903 0 0 1 9.6331,-4.3765 90.036902,90.036902 0 0 1 0,-10e-4 90.036902,90.036902 0 0 1 0.2047,-0.084 90.036902,90.036902 0 0 1 0.1168,-0.042 90.036903,90.036903 0 0 1 24.4367,-5.6338 90.036902,90.036902 0 0 1 1.3844,-0.1318 19.348414,19.348414 0 0 1 -0.1033,-0.038 90.036902,90.036902 0 0 1 2.0981,-0.1323 90.036903,90.036903 0 0 1 2.7569,-0.2465 z m 94.4841,31.3867 a 50.15401,50.15401 0 0 1 -2.4479,1.3348 50.15401,50.15401 0 0 1 -1.0635,0.4842 19.348414,19.348414 0 0 1 3.5114,-1.819 z m -182.3599,66.014 a 90.036903,90.036903 0 0 0 0.016,0.1876 90.036901,90.036901 0 0 1 -0.011,-0.097 90.036901,90.036901 0 0 1 -0.01,-0.091 z" /><path
         style="fill:#f2f2f2;fill-opacity:0.89775;stroke-width:5.10975542;-inkscape-stroke:none;font-variation-settings:normal;vector-effect:none;stroke-linecap:butt;stroke-linejoin:miter;stroke-miterlimit:4;stroke-dasharray:none;stroke-dashoffset:0;stroke-opacity:1;stop-color:#000000;stop-opacity:1"
         id="path704"
         sodipodi:type="arc"
         sodipodi:cx="-1071.1555"
         sodipodi:cy="2688.4849"
         sodipodi:rx="80.747955"
         sodipodi:ry="80.747955"
         sodipodi:start="0"
         sodipodi:end="6.2590314"
         sodipodi:open="true"
         sodipodi:arc-type="arc"
         d="m -990.40756,2688.4849 a 80.747955,80.747955 0 0 1 -80.26034,80.7464 80.747955,80.747955 0 0 1 -81.2297,-79.7713 80.747955,80.747955 0 0 1 79.2794,-81.7098 80.747955,80.747955 0 0 1 82.18708,78.7845"
         inkscape:transform-center-x="0.0018849873"
         inkscape:transform-center-y="0.0015393364"
         transform="rotate(37.823801)" /></g><path
       id="path705"
       style="opacity:1;fill:#f2f2f2;fill-opacity:0.89775;stroke-width:0.291784;-inkscape-stroke:none;font-variation-settings:normal;vector-effect:none;stroke-linecap:butt;stroke-linejoin:miter;stroke-miterlimit:4;stroke-dasharray:none;stroke-dashoffset:0;stroke-opacity:1;stop-color:#000000;stop-opacity:1"
       d="m -3107.9341,2419.1132 c 0,2.0676 -1.6645,3.7321 -3.7321,3.7321 2.0676,0 3.7321,1.6645 3.7321,3.7321 0,-2.0676 1.6645,-3.7321 3.7321,-3.7321 -2.0676,0 -3.7321,-1.6644 -3.7321,-3.7321 z" /><path
       id="path706"
       style="opacity:1;fill:#f2f2f2;fill-opacity:0.89775;stroke-width:0.291784;-inkscape-stroke:none;font-variation-settings:normal;vector-effect:none;stroke-linecap:butt;stroke-linejoin:miter;stroke-miterlimit:4;stroke-dasharray:none;stroke-dashoffset:0;stroke-opacity:1;stop-color:#000000;stop-opacity:1"
       d="m -3077.8867,2427.8369 c 0,0.5189 -0.4178,0.9367 -0.9367,0.9367 0.5189,0 0.9367,0.4178 0.9367,0.9368 0,-0.519 0.4178,-0.9368 0.9367,-0.9368 -0.5189,0 -0.9367,-0.4178 -0.9367,-0.9367 z" /><path
       id="path707"
       style="opacity:1;fill:#f2f2f2;fill-opacity:0.89775;stroke-width:0.291784;-inkscape-stroke:none;font-variation-settings:normal;vector-effect:none;stroke-linecap:butt;stroke-linejoin:miter;stroke-miterlimit:4;stroke-dasharray:none;stroke-dashoffset:0;stroke-opacity:1;stop-color:#000000;stop-opacity:1"
       d="m -3088.5692,2442.3669 c 0,0.519 -0.4178,0.9367 -0.9367,0.9367 0.5189,0 0.9367,0.4178 0.9367,0.9368 0,-0.519 0.4178,-0.9368 0.9367,-0.9368 -0.5189,0 -0.9367,-0.4177 -0.9367,-0.9367 z" /><path
       id="path708"
       style="opacity:1;fill:#f2f2f2;fill-opacity:0.89775;stroke-width:0.291784;-inkscape-stroke:none;font-variation-settings:normal;vector-effect:none;stroke-linecap:butt;stroke-linejoin:miter;stroke-miterlimit:4;stroke-dasharray:none;stroke-dashoffset:0;stroke-opacity:1;stop-color:#000000;stop-opacity:1"
       d="m -3091.5239,2457.6589 c 0,1.3458 -1.0835,2.4293 -2.4293,2.4293 1.3458,0 2.4293,1.0835 2.4293,2.4293 0,-1.3458 1.0835,-2.4293 2.4293,-2.4293 -1.3458,0 -2.4293,-1.0835 -2.4293,-2.4293 z" /><path
       id="path709"
       style="opacity:1;fill:#f2f2f2;fill-opacity:0.89775;stroke-width:0.291784;-inkscape-stroke:none;font-variation-settings:normal;vector-effect:none;stroke-linecap:butt;stroke-linejoin:miter;stroke-miterlimit:4;stroke-dasharray:none;stroke-dashoffset:0;stroke-opacity:1;stop-color:#000000;stop-opacity:1"
       d="m -3116.4543,2420.6143 c 0,0.8359 -0.6729,1.5088 -1.5088,1.5088 0.8359,0 1.5088,0.6729 1.5088,1.5088 0,-0.8359 0.6729,-1.5088 1.5088,-1.5088 -0.8359,0 -1.5088,-0.6729 -1.5088,-1.5088 z" /><path
       id="path710"
       style="opacity:1;fill:#f2f2f2;fill-opacity:0.89775;stroke-width:0.291784;-inkscape-stroke:none;font-variation-settings:normal;vector-effect:none;stroke-linecap:butt;stroke-linejoin:miter;stroke-miterlimit:4;stroke-dasharray:none;stroke-dashoffset:0;stroke-opacity:1;stop-color:#000000;stop-opacity:1"
       d="m -3084.6149,2435.2178 c 0,0.8359 -0.6729,1.5088 -1.5088,1.5088 0.8359,0 1.5088,0.6729 1.5088,1.5088 0,-0.8359 0.673,-1.5088 1.5089,-1.5088 -0.8359,0 -1.5089,-0.6729 -1.5089,-1.5088 z" /><path
       style="fill:#f2f2f2;fill-opacity:0.89775;stroke-width:0.291784;-inkscape-stroke:none"
       id="path711"
       sodipodi:type="arc"
       sodipodi:cx="-3081.5369"
       sodipodi:cy="2421.3184"
       sodipodi:rx="4.5868621"
       sodipodi:ry="4.5868621"
       sodipodi:start="0"
       sodipodi:end="6.2590314"
       sodipodi:open="true"
       sodipodi:arc-type="arc"
       d="m -3076.95,2421.3184 a 4.5868621,4.5868621 0 0 1 -4.5592,4.5867 4.5868621,4.5868621 0 0 1 -4.6142,-4.5313 4.5868621,4.5868621 0 0 1 4.5034,-4.6416 4.5868621,4.5868621 0 0 1 4.6687,4.4754" /><path
       id="path633"
       style="opacity:1;fill:#f2f2f2;fill-opacity:0.89775;stroke-width:0.291784;-inkscape-stroke:none;font-variation-settings:normal;vector-effect:none;stroke-linecap:butt;stroke-linejoin:miter;stroke-miterlimit:4;stroke-dasharray:none;stroke-dashoffset:0;stroke-opacity:1;stop-color:#000000;stop-opacity:1"
       d="m -3083.0852,2446.0284 c 0,3.3292 -2.6802,6.0094 -6.0094,6.0094 3.3292,0 6.0094,2.6802 6.0094,6.0094 0,-3.3292 2.6802,-6.0094 6.0094,-6.0094 -3.3292,0 -6.0094,-2.6802 -6.0094,-6.0094 z" /><path
       id="path634"
       style="opacity:1;fill:#f2f2f2;fill-opacity:0.89775;stroke-width:0.291784;-inkscape-stroke:none;font-variation-settings:normal;vector-effect:none;stroke-linecap:butt;stroke-linejoin:miter;stroke-miterlimit:4;stroke-dasharray:none;stroke-dashoffset:0;stroke-opacity:1;stop-color:#000000;stop-opacity:1"
       d="m -3108.4909,2432.4767 c 0,0.5191 -0.4178,0.9368 -0.9368,0.9368 0.519,0 0.9368,0.4178 0.9368,0.9368 0,-0.519 0.4177,-0.9368 0.9367,-0.9368 -0.519,0 -0.9367,-0.4177 -0.9367,-0.9368 z" /><path
       id="path635"
       style="opacity:1;fill:#f2f2f2;fill-opacity:0.89775;stroke-width:0.291784;-inkscape-stroke:none;font-variation-settings:normal;vector-effect:none;stroke-linecap:butt;stroke-linejoin:miter;stroke-miterlimit:4;stroke-dasharray:none;stroke-dashoffset:0;stroke-opacity:1;stop-color:#000000;stop-opacity:1"
       d="m -3118.0421,2452.6275 c 0,0.5189 -0.4178,0.9367 -0.9368,0.9367 0.519,0 0.9368,0.4178 0.9368,0.9367 0,-0.5189 0.4178,-0.9367 0.9367,-0.9367 -0.5189,0 -0.9367,-0.4178 -0.9367,-0.9367 z" /><path
       id="path636"
       style="opacity:1;fill:#f2f2f2;fill-opacity:0.89775;stroke-width:0.291784;-inkscape-stroke:none;font-variation-settings:normal;vector-effect:none;stroke-linecap:butt;stroke-linejoin:miter;stroke-miterlimit:4;stroke-dasharray:none;stroke-dashoffset:0;stroke-opacity:1;stop-color:#000000;stop-opacity:1"
       d="m -3108.1106,2453.1886 c 0,1.3458 -1.0835,2.4293 -2.4293,2.4293 1.3458,0 2.4293,1.0835 2.4293,2.4293 0,-1.3458 1.0835,-2.4293 2.4293,-2.4293 -1.3458,0 -2.4293,-1.0835 -2.4293,-2.4293 z" /><path
       id="path637"
       style="opacity:1;fill:#f2f2f2;fill-opacity:0.89775;stroke-width:0.291784;-inkscape-stroke:none;font-variation-settings:normal;vector-effect:none;stroke-linecap:butt;stroke-linejoin:miter;stroke-miterlimit:4;stroke-dasharray:none;stroke-dashoffset:0;stroke-opacity:1;stop-color:#000000;stop-opacity:1"
       d="m -3098.3573,2416.0956 c 0,0.8359 -0.6729,1.5088 -1.5088,1.5088 0.8359,0 1.5088,0.6729 1.5088,1.5088 0,-0.8359 0.673,-1.5088 1.5089,-1.5088 -0.8359,0 -1.5089,-0.6729 -1.5089,-1.5088 z" /><path
       id="path638"
       style="opacity:1;fill:#f2f2f2;fill-opacity:0.89775;stroke-width:0.291784;-inkscape-stroke:none;font-variation-settings:normal;vector-effect:none;stroke-linecap:butt;stroke-linejoin:miter;stroke-miterlimit:4;stroke-dasharray:none;stroke-dashoffset:0;stroke-opacity:1;stop-color:#000000;stop-opacity:1"
       d="m -3086.1237,2425.9052 c 0,0.8359 -0.6729,1.5088 -1.5088,1.5088 0.8359,0 1.5088,0.673 1.5088,1.5088 0,-0.8358 0.673,-1.5088 1.5088,-1.5088 -0.8358,0 -1.5088,-0.6729 -1.5088,-1.5088 z" /><path
       id="path737"
       style="opacity:1;fill:#f2f2f2;fill-opacity:0.89775;stroke-width:0.291784;-inkscape-stroke:none;font-variation-settings:normal;vector-effect:none;stroke-linecap:butt;stroke-linejoin:miter;stroke-miterlimit:4;stroke-dasharray:none;stroke-dashoffset:0;stroke-opacity:1;stop-color:#000000;stop-opacity:1"
       d="m -3121.0661,2427.1958 c 0,0.5189 -0.4178,0.9367 -0.9367,0.9367 0.5189,0 0.9367,0.4178 0.9367,0.9367 0,-0.5189 0.4178,-0.9367 0.9367,-0.9367 -0.5189,0 -0.9367,-0.4178 -0.9367,-0.9367 z" /><path
       id="path738"
       style="opacity:1;fill:#f2f2f2;fill-opacity:0.89775;stroke-width:0.291784;-inkscape-stroke:none;font-variation-settings:normal;vector-effect:none;stroke-linecap:butt;stroke-linejoin:miter;stroke-miterlimit:4;stroke-dasharray:none;stroke-dashoffset:0;stroke-opacity:1;stop-color:#000000;stop-opacity:1"
       d="m -3118.8836,2436.7266 c 0,1.3459 -1.0835,2.4294 -2.4293,2.4294 1.3458,0 2.4293,1.0835 2.4293,2.4293 0,-1.3458 1.0835,-2.4293 2.4293,-2.4293 -1.3458,0 -2.4293,-1.0835 -2.4293,-2.4294 z"
       inkscape:transform-center-x="2.0462823"
       inkscape:transform-center-y="-4.3848907" /><path
       id="path736"
       style="opacity:1;fill:#f2f2f2;fill-opacity:0.89775;stroke-width:0.291784;-inkscape-stroke:none;font-variation-settings:normal;vector-effect:none;stroke-linecap:butt;stroke-linejoin:miter;stroke-miterlimit:4;stroke-dasharray:none;stroke-dashoffset:0;stroke-opacity:1;stop-color:#000000;stop-opacity:1"
       d="m -3117.1054,2454.3151 c 0,2.0676 -1.6645,3.7321 -3.7321,3.7321 2.0676,0 3.7321,1.6645 3.7321,3.7321 0,-2.0676 1.6645,-3.7321 3.7321,-3.7321 -2.0676,0 -3.7321,-1.6645 -3.7321,-3.7321 z" /><g
       id="g770"><path
         id="path712"
         style="font-variation-settings:normal;vector-effect:none;fill:#e6e6e6;fill-opacity:1;stroke-width:0.0699172;stroke-linecap:butt;stroke-linejoin:miter;stroke-miterlimit:4;stroke-dasharray:none;stroke-dashoffset:0;stroke-opacity:1;-inkscape-stroke:none;stop-color:#000000"
         d="M -3084.7987 2418.0939 A 4.5868622 4.5868622 0 0 0 -3086.1433 2421.3779 A 4.5868622 4.5868622 0 0 0 -3083.0851 2425.6355 A 7.3848482 7.3848482 0 0 1 -3084.5192 2423.5524 A 0.46938023 0.46938023 0 0 1 -3084.9806 2423.956 A 0.46938023 0.46938023 0 0 1 -3085.4529 2423.4925 A 0.46938023 0.46938023 0 0 1 -3084.992 2423.0176 A 0.46938023 0.46938023 0 0 1 -3084.7036 2423.1111 A 7.3848482 7.3848482 0 0 1 -3085.1987 2420.7826 A 0.31012744 0.31012744 0 0 1 -3085.2886 2420.7965 A 0.31012744 0.31012744 0 0 1 -3085.6002 2420.4901 A 0.31012744 0.31012744 0 0 1 -3085.2959 2420.1764 A 0.31012744 0.31012744 0 0 1 -3085.1977 2420.1909 A 7.3848482 7.3848482 0 0 1 -3084.7987 2418.0939 z " /><path
         style="fill:#e6e6e6;fill-opacity:0.988235;stroke-width:0.0699172;-inkscape-stroke:none"
         id="path713"
         sodipodi:type="arc"
         sodipodi:cx="-3083.5042"
         sodipodi:cy="2420.739"
         sodipodi:rx="1.0991021"
         sodipodi:ry="1.0991021"
         sodipodi:start="0"
         sodipodi:end="6.2590314"
         sodipodi:open="true"
         sodipodi:arc-type="arc"
         d="m -3082.405,2420.739 a 1.0991021,1.0991021 0 0 1 -1.0925,1.0991 1.0991021,1.0991021 0 0 1 -1.1057,-1.0858 1.0991021,1.0991021 0 0 1 1.0791,-1.1122 1.0991021,1.0991021 0 0 1 1.1187,1.0724" /><path
         style="fill:#e6e6e6;fill-opacity:1;stroke-width:0.0434259;-inkscape-stroke:none"
         id="path714"
         sodipodi:type="arc"
         sodipodi:cx="-3080.655"
         sodipodi:cy="2423.6895"
         sodipodi:rx="0.68265873"
         sodipodi:ry="0.68265873"
         sodipodi:start="0"
         sodipodi:end="6.2590314"
         sodipodi:open="true"
         sodipodi:arc-type="arc"
         d="m -3079.9724,2423.6895 a 0.68265873,0.68265873 0 0 1 -0.6785,0.6826 0.68265873,0.68265873 0 0 1 -0.6867,-0.6744 0.68265873,0.68265873 0 0 1 0.6702,-0.6908 0.68265873,0.68265873 0 0 1 0.6948,0.6661" /><path
         style="fill:#e6e6e6;fill-opacity:1;stroke-width:0.0269721;-inkscape-stroke:none"
         id="path715"
         sodipodi:type="arc"
         sodipodi:cx="-3078.2312"
         sodipodi:cy="2420.8943"
         sodipodi:rx="0.42400298"
         sodipodi:ry="0.42400298"
         sodipodi:start="0"
         sodipodi:end="6.2590314"
         sodipodi:open="true"
         sodipodi:arc-type="arc"
         d="m -3077.8072,2420.8943 a 0.42400298,0.42400298 0 0 1 -0.4214,0.424 0.42400298,0.42400298 0 0 1 -0.4266,-0.4189 0.42400298,0.42400298 0 0 1 0.4163,-0.429 0.42400298,0.42400298 0 0 1 0.4316,0.4136" /><path
         style="fill:#e6e6e6;fill-opacity:1;stroke-width:0.0167499;-inkscape-stroke:none"
         id="path716"
         sodipodi:type="arc"
         sodipodi:cx="-3084.3892"
         sodipodi:cy="2419.3765"
         sodipodi:rx="0.26330972"
         sodipodi:ry="0.26330972"
         sodipodi:start="0"
         sodipodi:end="6.2590314"
         sodipodi:open="true"
         sodipodi:arc-type="arc"
         d="m -3084.1259,2419.3765 a 0.26330972,0.26330972 0 0 1 -0.2617,0.2633 0.26330972,0.26330972 0 0 1 -0.2649,-0.2602 0.26330972,0.26330972 0 0 1 0.2586,-0.2664 0.26330972,0.26330972 0 0 1 0.268,0.2569" /><path
         style="fill:#e6e6e6;fill-opacity:1;stroke-width:0.0699172;-inkscape-stroke:none"
         id="path717"
         sodipodi:type="arc"
         sodipodi:cx="-3080.5637"
         sodipodi:cy="2418.5825"
         sodipodi:rx="1.0991021"
         sodipodi:ry="1.0991021"
         sodipodi:start="0"
         sodipodi:end="6.2590314"
         sodipodi:open="true"
         sodipodi:arc-type="arc"
         d="m -3079.4646,2418.5825 a 1.0991021,1.0991021 0 0 1 -1.0925,1.0991 1.0991021,1.0991021 0 0 1 -1.1056,-1.0858 1.0991021,1.0991021 0 0 1 1.0791,-1.1122 1.0991021,1.0991021 0 0 1 1.1187,1.0724" /><path
         style="fill:#e6e6e6;fill-opacity:1;stroke-width:0.0434259;-inkscape-stroke:none"
         id="path719"
         d="m -3082.215,2422.7944 a 0.68265873,0.68265873 0 0 1 -0.6786,0.6827 0.68265873,0.68265873 0 0 1 -0.6867,-0.6744 0.68265873,0.68265873 0 0 1 0.6702,-0.6908 0.68265873,0.68265873 0 0 1 0.6949,0.666"
         sodipodi:type="arc"
         sodipodi:arc-type="arc"
         sodipodi:open="true"
         sodipodi:start="0"
         sodipodi:end="6.2590314"
         sodipodi:ry="0.68265873"
         sodipodi:rx="0.68265873"
         sodipodi:cy="2422.7944"
         sodipodi:cx="-3082.8977" /><path
         style="fill:#e6e6e6;fill-opacity:1;stroke-width:0.0167499;-inkscape-stroke:none"
         id="path722"
         d="m -3085.027,2420.4866 a 0.26330972,0.26330972 0 0 1 -0.2617,0.2633 0.26330972,0.26330972 0 0 1 -0.2649,-0.2601 0.26330972,0.26330972 0 0 1 0.2585,-0.2665 0.26330972,0.26330972 0 0 1 0.268,0.2569"
         sodipodi:type="arc"
         sodipodi:arc-type="arc"
         sodipodi:open="true"
         sodipodi:start="0"
         sodipodi:end="6.2590314"
         sodipodi:ry="0.26330972"
         sodipodi:rx="0.26330972"
         sodipodi:cy="2420.4866"
         sodipodi:cx="-3085.2903" /><path
         style="fill:#e6e6e6;fill-opacity:1;stroke-width:0.0104059;-inkscape-stroke:none"
         id="path723"
         sodipodi:type="arc"
         sodipodi:cx="-3080.5488"
         sodipodi:cy="2420.155"
         sodipodi:rx="0.16358115"
         sodipodi:ry="0.16358115"
         sodipodi:start="0"
         sodipodi:end="6.2590314"
         sodipodi:open="true"
         sodipodi:arc-type="arc"
         d="m -3080.3852,2420.155 a 0.16358115,0.16358115 0 0 1 -0.1626,0.1636 0.16358115,0.16358115 0 0 1 -0.1646,-0.1616 0.16358115,0.16358115 0 0 1 0.1606,-0.1655 0.16358115,0.16358115 0 0 1 0.1665,0.1596" /><path
         style="fill:#e6e6e6;fill-opacity:1;stroke-width:0.00646323;-inkscape-stroke:none"
         id="path724"
         sodipodi:type="arc"
         sodipodi:cx="-3081.6851"
         sodipodi:cy="2422.896"
         sodipodi:rx="0.10160252"
         sodipodi:ry="0.10160252"
         sodipodi:start="0"
         sodipodi:end="6.2590314"
         sodipodi:open="true"
         sodipodi:arc-type="arc"
         d="m -3081.5835,2422.896 a 0.10160252,0.10160252 0 0 1 -0.1009,0.1016 0.10160252,0.10160252 0 0 1 -0.1023,-0.1004 0.10160252,0.10160252 0 0 1 0.1,-0.1028 0.10160252,0.10160252 0 0 1 0.1034,0.099" /><path
         style="fill:#e6e6e6;fill-opacity:1;stroke-width:0.00401413;-inkscape-stroke:none"
         id="path725"
         sodipodi:type="arc"
         sodipodi:cx="-3082.0632"
         sodipodi:cy="2418.2515"
         sodipodi:rx="0.063102312"
         sodipodi:ry="0.063102312"
         sodipodi:start="0"
         sodipodi:end="6.2590314"
         sodipodi:open="true"
         sodipodi:arc-type="arc"
         d="m -3082.0001,2418.2515 a 0.06310231,0.06310231 0 0 1 -0.063,0.063 0.06310231,0.06310231 0 0 1 -0.063,-0.062 0.06310231,0.06310231 0 0 1 0.062,-0.064 0.06310231,0.06310231 0 0 1 0.064,0.061" /><path
         style="font-variation-settings:normal;opacity:1;vector-effect:none;fill:#e6e6e6;fill-opacity:1;stroke-width:0.0699172;stroke-linecap:butt;stroke-linejoin:miter;stroke-miterlimit:4;stroke-dasharray:none;stroke-dashoffset:0;stroke-opacity:1;-inkscape-stroke:none;stop-color:#000000;stop-opacity:1"
         id="path720"
         sodipodi:type="arc"
         sodipodi:cx="-3084.9839"
         sodipodi:cy="2423.4868"
         sodipodi:rx="0.42400298"
         sodipodi:ry="0.42400298"
         sodipodi:start="0"
         sodipodi:end="6.2590314"
         sodipodi:open="true"
         sodipodi:arc-type="arc"
         d="m -3084.5599,2423.4868 a 0.42400298,0.42400298 0 0 1 -0.4214,0.424 0.42400298,0.42400298 0 0 1 -0.4266,-0.4189 0.42400298,0.42400298 0 0 1 0.4163,-0.429 0.42400298,0.42400298 0 0 1 0.4316,0.4137" /></g></g></svg>
