<?xml version="1.0" encoding="UTF-8" standalone="no"?>
<!-- Created with Inkscape (http://www.inkscape.org/) -->

<svg
   width="600"
   height="600"
   viewBox="0 0 158.75 158.75"
   version="1.1"
   id="svg1"
   inkscape:version="1.4 (86a8ad7, 2024-10-11)"
   sodipodi:docname="Stellar-Objects.svg"
   xml:space="preserve"
   inkscape:export-filename="Sun-Moon-Stars-01.webp"
   inkscape:export-xdpi="96"
   inkscape:export-ydpi="96"
   xmlns:inkscape="http://www.inkscape.org/namespaces/inkscape"
   xmlns:sodipodi="http://sodipodi.sourceforge.net/DTD/sodipodi-0.dtd"
   xmlns="http://www.w3.org/2000/svg"
   xmlns:svg="http://www.w3.org/2000/svg"><sodipodi:namedview
     id="namedview1"
     pagecolor="#7a7a7a"
     bordercolor="#000000"
     borderopacity="0.25"
     inkscape:showpageshadow="2"
     inkscape:pageopacity="0.0"
     inkscape:pagecheckerboard="0"
     inkscape:deskcolor="#afafaf"
     inkscape:document-units="px"
     inkscape:zoom="0.11313708"
     inkscape:cx="1299.3087"
     inkscape:cy="592.20193"
     inkscape:window-width="1920"
     inkscape:window-height="1009"
     inkscape:window-x="-8"
     inkscape:window-y="-8"
     inkscape:window-maximized="1"
     inkscape:current-layer="layer1"
     showguides="true"><sodipodi:guide
       position="2085.2668,2843.2204"
       orientation="1,0"
       id="guide248"
       inkscape:locked="false" /><sodipodi:guide
       position="2085.2668,2843.2204"
       orientation="0,-1"
       id="guide249"
       inkscape:locked="false" /><sodipodi:guide
       position="488.47681,2572.561"
       orientation="0,-1"
       id="guide523"
       inkscape:locked="false" /><sodipodi:guide
       position="325.31168,2493.3451"
       orientation="0,-1"
       id="guide525"
       inkscape:locked="false" /><inkscape:page
       x="0"
       y="0"
       width="158.75"
       height="158.75"
       id="page2"
       margin="0"
       bleed="0" /></sodipodi:namedview><defs
     id="defs1" /><g
     inkscape:label="Ebene 1"
     inkscape:groupmode="layer"
     id="layer1"
     transform="translate(3644.5782,-2327.8434)"><g
       id="g655"
       transform="matrix(0.23915331,0,0,0.23915331,-2817.7173,1672.6336)"><g
         id="g632"
         transform="translate(-747.84783,1626.7705)"><path
           id="path631"
           style="fill:#ffffff;fill-opacity:0.89775;stroke-width:5.13662;-inkscape-stroke:none"
           d="m -2436.2619,1304.4904 a 80.747956,80.747956 0 0 0 -14.9996,6.9096 80.747956,80.747956 0 0 0 -36.4655,50.4781 50.15401,50.15401 0 0 0 -1.1653,-3.2153 50.15401,50.15401 0 0 0 -26.5482,-26.7736 50.15401,50.15401 0 0 0 -11.976,-3.3398 50.15401,50.15401 0 0 1 15.9437,15.9959 80.747956,80.747956 0 0 0 -16.661,-10.7006 80.747956,80.747956 0 0 0 -15.6109,-5.3889 80.747956,80.747956 0 0 1 22.4709,31.5805 19.348414,19.348414 0 0 0 -2.2789,17.8801 19.348414,19.348414 0 0 1 -1.6371,-0.6594 50.15401,50.15401 0 0 1 -12.3672,-30.5459 50.15401,50.15401 0 0 0 -2.9833,12.07 50.15401,50.15401 0 0 0 -0.034,10.2273 50.15401,50.15401 0 0 0 0,5e-4 19.348414,19.348414 0 0 0 0,0.01 19.348414,19.348414 0 0 0 -0.6165,2.4939 50.154009,50.154009 0 0 0 -3.3667,-3.2582 50.154009,50.154009 0 0 0 -6.8001,-4.886 50.154009,50.154009 0 0 1 7.4424,15.8817 80.747956,80.747956 0 0 0 -28.6158,-9.849 80.747955,80.747955 0 0 1 -24.1019,-41.8532 80.747955,80.747955 0 0 0 -2.653,16.3003 80.747955,80.747955 0 0 0 3.085,25.663 80.747956,80.747956 0 0 0 -10.5776,2.482 80.747956,80.747956 0 0 1 12.4085,3.3269 80.747955,80.747955 0 0 0 16.181,26.601 80.747955,80.747955 0 0 0 0.095,0.095 19.348414,19.348414 0 0 1 -5.4544,-5.0162 19.348414,19.348414 0 0 0 -0.479,4.0328 50.154009,50.154009 0 0 0 -1.8749,-0.2816 50.154009,50.154009 0 0 0 -32.2631,7.7685 50.154009,50.154009 0 0 0 -9.463,8.0646 50.154009,50.154009 0 0 1 4.8348,-1.8547 50.154009,50.154009 0 0 1 47.408,9.0475 19.348414,19.348414 0 0 1 -3.8106,1.5999 19.348414,19.348414 0 0 1 -19.9755,-5.9278 19.348414,19.348414 0 0 0 -0.2011,2.7637 19.348414,19.348414 0 0 0 0.784,5.4715 19.348414,19.348414 0 0 0 16.2398,13.6767 50.154009,50.154009 0 0 1 -35.8867,-6.2177 50.154009,50.154009 0 0 0 8.3416,9.2196 50.154009,50.154009 0 0 0 14.3366,8.4987 50.15401,50.15401 0 0 0 -8.909,1.6324 50.15401,50.15401 0 0 0 -7.8114,3.0153 50.15401,50.15401 0 0 1 15.7158,1.9498 80.747955,80.747955 0 0 0 -14.0756,9.4108 80.747956,80.747956 0 0 1 -5.0519,-1.0495 80.747956,80.747956 0 0 0 3.1652,2.5869 80.747955,80.747955 0 0 0 -8.3287,8.5643 80.747956,80.747956 0 0 1 -46.1869,-3.1848 80.747956,80.747956 0 0 0 12.1879,11.144 80.747956,80.747956 0 0 0 22.0974,11.1259 80.747955,80.747955 0 0 0 -1.4268,3.4009 80.747955,80.747955 0 0 0 -1.7808,5.2183 80.747955,80.747955 0 0 1 4.7992,-4.5212 80.747955,80.747955 0 0 1 3.2965,-2.6329 80.747956,80.747956 0 0 0 26.111,2.3326 19.348414,19.348414 0 0 0 3.7424,2.9058 50.15401,50.15401 0 0 0 -13.0565,33.3747 50.15401,50.15401 0 0 0 1.5684,12.3336 50.15401,50.15401 0 0 1 34.6361,-39.7851 19.348414,19.348414 0 0 1 -0.7633,4.07 19.348414,19.348414 0 0 1 -15.8967,13.4705 19.348414,19.348414 0 0 0 2.2025,1.6815 19.348414,19.348414 0 0 0 5.0079,2.3389 19.348414,19.348414 0 0 0 20.3456,-6.1252 50.15401,50.15401 0 0 1 -0.2036,0.4977 50.15401,50.15401 0 0 0 -11.2361,15.522 50.15401,50.15401 0 0 0 -0.8423,2.02 50.15401,50.15401 0 0 1 -12.5775,8.6104 50.15401,50.15401 0 0 0 12.2819,-1.9327 50.15401,50.15401 0 0 0 18.124,-9.8087 80.747956,80.747956 0 0 1 -41.4848,62.5 80.747956,80.747956 0 0 0 16.3912,-2.0159 80.747956,80.747956 0 0 0 32.1257,-16.198 80.747956,80.747956 0 0 0 3.4711,7.7675 80.747956,80.747956 0 0 0 9.2465,13.6834 80.747956,80.747956 0 0 1 -1.156,-6.491 80.747956,80.747956 0 0 1 1.1555,-28.0397 80.747956,80.747956 0 0 0 5.257,-7.706 50.15401,50.15401 0 0 0 17.2703,37.0019 50.15401,50.15401 0 0 0 10.3911,6.8265 50.15401,50.15401 0 0 1 -2.8893,-3.7662 50.15401,50.15401 0 0 1 -8.8444,-31.7619 19.348414,19.348414 0 0 0 0.6398,-0.3984 19.348414,19.348414 0 0 0 7.3949,-10.3379 19.348414,19.348414 0 0 1 -1.5172,18.1441 19.348414,19.348414 0 0 0 2.7094,-0.5808 19.348414,19.348414 0 0 0 5.0327,-2.2846 19.348414,19.348414 0 0 0 8.6047,-19.4541 50.15401,50.15401 0 0 1 4.0571,36.2267 50.15401,50.15401 0 0 0 6.5153,-10.589 50.15401,50.15401 0 0 0 3.7264,-12.6008 50.15401,50.15401 0 0 0 2.5404,4.8736 50.15401,50.15401 0 0 0 4.963,6.7443 50.15401,50.15401 0 0 1 -0.8557,-3.0996 50.15401,50.15401 0 0 1 -1.2909,-14.8027 80.747956,80.747956 0 0 0 23.8926,18.1679 80.747956,80.747956 0 0 1 10.2815,47.7671 80.747956,80.747956 0 0 0 7.5489,-14.6885 80.747956,80.747956 0 0 0 5.0623,-25.7028 80.747956,80.747956 0 0 0 11.2504,0.9214 80.747956,80.747956 0 0 1 -5.6833,-3.3414 80.747956,80.747956 0 0 1 -5.6167,-3.9802 80.747956,80.747956 0 0 0 -7.3614,-30.0343 50.15401,50.15401 0 0 0 0.037,0.022 50.15401,50.15401 0 0 0 0.7927,0.4625 19.348414,19.348414 0 0 1 3.315,5.9811 19.348414,19.348414 0 0 0 1.5395,-3.3223 50.15401,50.15401 0 0 0 34.5606,3.2933 50.15401,50.15401 0 0 0 11.4882,-4.7547 50.15401,50.15401 0 0 1 -45.3889,-19.8293 50.15401,50.15401 0 0 1 -2.0914,-3.1182 19.348414,19.348414 0 0 1 4.1176,-0.3472 19.348414,19.348414 0 0 1 17.1752,11.7972 19.348414,19.348414 0 0 0 1.0433,-2.5673 19.348414,19.348414 0 0 0 0.9411,-5.4467 19.348414,19.348414 0 0 0 -11.1477,-18.0067 50.15401,50.15401 0 0 1 32.1371,16.9675 50.15401,50.15401 0 0 0 -5.0933,-11.342 50.15401,50.15401 0 0 0 -18.3761,-17.4475 80.747956,80.747956 0 0 0 51.6124,-21.2762 80.747956,80.747956 0 0 0 10.7714,-12.5181 80.747956,80.747956 0 0 1 -38.07,9.2372 80.747956,80.747956 0 0 1 -2.0103,-0.096 50.15401,50.15401 0 0 0 2.9472,-0.6718 50.15401,50.15401 0 0 0 7.8589,-2.8898 50.15401,50.15401 0 0 1 -23.7546,-5.488 19.348414,19.348414 0 0 1 19.3223,-5.4565 19.348414,19.348414 0 0 0 -3.3827,-4.9723 80.747956,80.747956 0 0 1 62.8628,-1.4806 80.747956,80.747956 0 0 0 -12.0075,-11.3378 80.747956,80.747956 0 0 0 -54.1848,-15.7334 80.747956,80.747956 0 0 0 -6.2689,0.7493 50.15401,50.15401 0 0 0 17.4971,-36.915 50.15401,50.15401 0 0 0 -1.3699,-12.3574 50.15401,50.15401 0 0 1 -31.6761,38.0788 50.15401,50.15401 0 0 1 -3.5771,1.1415 19.348414,19.348414 0 0 1 0.091,-0.8015 50.15401,50.15401 0 0 0 14.1898,-12.6225 50.15401,50.15401 0 0 0 2.5761,-3.8313 19.348414,19.348414 0 0 1 0.065,-0.011 19.348414,19.348414 0 0 0 -0.038,-0.032 50.15401,50.15401 0 0 0 1.8324,-3.2272 50.15401,50.15401 0 0 1 -3.0106,2.2453 19.348414,19.348414 0 0 0 -0.9597,-0.7023 19.348414,19.348414 0 0 0 -4.9697,-2.4195 19.348414,19.348414 0 0 0 -10.1255,-0.3927 80.747956,80.747956 0 0 1 3.2407,-6.8415 80.747956,80.747956 0 0 1 6.969,-10.6665 50.15401,50.15401 0 0 1 4.7584,-2.5487 50.15401,50.15401 0 0 0 -2.9833,0.1711 80.747956,80.747956 0 0 1 39.8942,-26.3447 80.747956,80.747956 0 0 0 -16.4377,-1.5926 80.747956,80.747956 0 0 0 -52.248,20.7165 80.747956,80.747956 0 0 0 -8.4827,-33.9131 80.747956,80.747956 0 0 0 -9.0263,-13.8297 80.747956,80.747956 0 0 1 1.3224,9.123 50.15401,50.15401 0 0 0 -2.8531,-2.9389 50.15401,50.15401 0 0 0 -2.8592,-2.4949 80.747956,80.747956 0 0 1 16.7695,-26.6852 z m -16.832,26.8578 a 50.15401,50.15401 0 0 1 5.5087,21.8405 80.747956,80.747956 0 0 1 -8.0057,26.6387 80.747956,80.747956 0 0 1 -0.2651,0.5214 80.747956,80.747956 0 0 1 -2.4412,-15.1211 19.348414,19.348414 0 0 1 3.9785,-5.7061 19.348414,19.348414 0 0 0 -2.7714,-0.022 19.348414,19.348414 0 0 0 -1.3115,0.1468 80.747956,80.747956 0 0 1 5.3077,-28.2985 z m -43.3147,45.3931 a 90.036903,90.036903 0 0 1 71.7718,33.926 90.036902,90.036902 0 0 1 0.03,0.039 90.036902,90.036902 0 0 1 1.7229,2.191 90.036902,90.036902 0 0 1 0.074,0.1034 90.036903,90.036903 0 0 1 6.2823,9.6816 90.036902,90.036902 0 0 1 0.045,0.079 90.036902,90.036902 0 0 1 0.5013,0.8661 90.036902,90.036902 0 0 1 0.025,0.047 90.036903,90.036903 0 0 1 3.1316,6.1464 90.036902,90.036902 0 0 1 0.1813,0.4537 90.036903,90.036903 0 0 1 0.4067,1.0196 90.036902,90.036902 0 0 1 2.0232,5.0663 90.036902,90.036902 0 0 1 0,0.01 90.036903,90.036903 0 0 1 1.9581,6.1139 50.15401,50.15401 0 0 0 0.01,0 90.036902,90.036902 0 0 1 1.5963,6.6419 90.036903,90.036903 0 0 1 0.032,0.1313 90.036903,90.036903 0 0 1 0.8697,5.1154 90.036902,90.036902 0 0 1 0,0.01 90.036902,90.036902 0 0 1 0.3131,2.481 19.348414,19.348414 0 0 0 -0.051,0.013 90.036902,90.036902 0 0 1 0.3198,3.5957 90.036903,90.036903 0 0 1 0,0.01 90.036903,90.036903 0 0 1 0.3932,4.1139 l 0.026,2.1746 a 90.036903,90.036903 0 0 1 -2.0784,18.1586 90.036902,90.036902 0 0 1 -0.02,0.095 90.036902,90.036902 0 0 1 -0.247,1.1518 90.036902,90.036902 0 0 1 -0.085,0.3783 90.036903,90.036903 0 0 1 0,5e-4 90.036903,90.036903 0 0 1 -5.0601,15.9107 90.036903,90.036903 0 0 0 3.298,-8.8785 90.036902,90.036902 0 0 1 -1.5808,4.9066 90.036902,90.036902 0 0 1 -1.7172,3.9719 90.036903,90.036903 0 0 1 -9.9855,17.2336 90.036902,90.036902 0 0 1 -0.817,1.1384 90.036902,90.036902 0 0 1 -0.511,0.6449 90.036903,90.036903 0 0 1 -7.0544,8.1158 90.036902,90.036902 0 0 1 0,0.01 90.036902,90.036902 0 0 1 -0.8155,0.8506 90.036902,90.036902 0 0 1 -0.524,0.4971 90.036903,90.036903 0 0 1 -7.766,6.7758 90.036902,90.036902 0 0 1 -0.37,0.2977 90.036902,90.036902 0 0 1 -0.4527,0.3483 90.036902,90.036902 0 0 1 -0.6676,0.478 90.036903,90.036903 0 0 1 -31.6565,15.043 90.036902,90.036902 0 0 1 -1.31,0.3157 90.036902,90.036902 0 0 1 -1.7968,0.4331 90.036902,90.036902 0 0 1 -2.1373,0.4206 90.036903,90.036903 0 0 1 -16.1262,1.7374 90.036903,90.036903 0 0 1 -18.3394,-2.0035 90.036902,90.036902 0 0 1 -0.155,-0.029 90.036902,90.036902 0 0 1 -0.1814,-0.04 90.036902,90.036902 0 0 1 -0.262,-0.057 90.036903,90.036903 0 0 1 -24.275,-8.8796 90.036902,90.036902 0 0 1 -0.053,-0.026 90.036902,90.036902 0 0 1 -0.038,-0.02 90.036902,90.036902 0 0 1 -0.036,-0.021 90.036903,90.036903 0 0 1 -40.6606,-45.7724 90.036901,90.036901 0 0 1 -0.3948,-0.9493 90.036901,90.036901 0 0 1 -0.2966,-0.8454 90.036903,90.036903 0 0 1 -5.8798,-30.3025 90.036903,90.036903 0 0 1 0.5395,-9.123 90.036903,90.036903 0 0 0 -0.2966,5.0116 90.036902,90.036902 0 0 1 0.057,-1.9363 90.036902,90.036902 0 0 1 0.2398,-3.0753 90.036903,90.036903 0 0 1 4.3956,-20.7217 90.036901,90.036901 0 0 1 0.1783,-0.5581 90.036901,90.036901 0 0 1 0.5416,-1.4542 90.036903,90.036903 0 0 1 4.2607,-9.8444 90.036901,90.036901 0 0 1 0.2088,-0.4315 90.036901,90.036901 0 0 1 0.6413,-1.1782 90.036903,90.036903 0 0 1 1.3271,-2.5135 19.348414,19.348414 0 0 1 -0.012,0.01 19.348414,19.348414 0 0 1 -0.012,0.01 90.036901,90.036901 0 0 1 0.1519,-0.2594 90.036903,90.036903 0 0 1 4.038,-6.2725 90.036902,90.036902 0 0 1 0,-0.01 90.036902,90.036902 0 0 1 0.01,-0.01 90.036901,90.036901 0 0 1 0.2532,-0.3685 90.036902,90.036902 0 0 1 0.5932,-0.7968 90.036903,90.036903 0 0 1 26.5591,-24.5241 90.036901,90.036901 0 0 1 1.3824,-0.8475 90.036901,90.036901 0 0 1 2.8039,-1.5358 19.348414,19.348414 0 0 0 0,0.01 90.036902,90.036902 0 0 1 0,-5e-4 90.036903,90.036903 0 0 1 9.6331,-4.3765 90.036902,90.036902 0 0 1 0,-10e-4 90.036902,90.036902 0 0 1 0.2047,-0.084 90.036902,90.036902 0 0 1 0.1168,-0.042 90.036903,90.036903 0 0 1 24.4367,-5.6338 90.036902,90.036902 0 0 1 1.3844,-0.1318 19.348414,19.348414 0 0 1 -0.1033,-0.038 90.036902,90.036902 0 0 1 2.0981,-0.1323 90.036903,90.036903 0 0 1 2.7569,-0.2465 z m 94.4841,31.3867 a 50.15401,50.15401 0 0 1 -2.4479,1.3348 50.15401,50.15401 0 0 1 -1.0635,0.4842 19.348414,19.348414 0 0 1 3.5114,-1.819 z m -182.3599,66.014 a 90.036903,90.036903 0 0 0 0.016,0.1876 90.036901,90.036901 0 0 1 -0.011,-0.097 90.036901,90.036901 0 0 1 -0.01,-0.091 z" /><path
           style="fill:#ffffff;fill-opacity:0.89775;stroke-width:5.13662;-inkscape-stroke:none"
           id="path632"
           sodipodi:type="arc"
           sodipodi:cx="-1071.1555"
           sodipodi:cy="2688.4849"
           sodipodi:rx="80.747955"
           sodipodi:ry="80.747955"
           sodipodi:start="0"
           sodipodi:end="6.2590314"
           sodipodi:open="true"
           sodipodi:arc-type="arc"
           d="m -990.40756,2688.4849 a 80.747955,80.747955 0 0 1 -80.26034,80.7464 80.747955,80.747955 0 0 1 -81.2297,-79.7713 80.747955,80.747955 0 0 1 79.2794,-81.7098 80.747955,80.747955 0 0 1 82.18708,78.7845"
           inkscape:transform-center-x="0.0018849873"
           inkscape:transform-center-y="0.0015393364"
           transform="rotate(37.823801)" /></g><g
         id="g639"
         transform="translate(-1086.7359,1485.6575)"><path
           id="path633"
           style="fill:#ffffff;fill-opacity:0.89775;stroke-width:1.36133;-inkscape-stroke:none"
           d="m -1864.196,1386.4142 c 0,58.3015 -46.936,105.2375 -105.2375,105.2375 58.3015,0 105.2375,46.9355 105.2375,105.237 0,-58.3015 46.936,-105.237 105.2375,-105.237 -58.3015,0 -105.2375,-46.936 -105.2375,-105.2375 z" /><g
           id="g638"><path
             id="path634"
             style="fill:#ffffff;fill-opacity:0.89775;stroke-width:0.289366;-inkscape-stroke:none"
             d="m -1946.8186,1544.7544 c 0,9.088 -7.3161,16.4042 -16.4041,16.4042 9.088,0 16.4041,7.3163 16.4041,16.4043 0,-9.088 7.3163,-16.4043 16.4042,-16.4043 -9.0879,0 -16.4042,-7.3162 -16.4042,-16.4042 z" /><path
             id="path635"
             style="fill:#ffffff;fill-opacity:0.89775;stroke-width:0.289366;-inkscape-stroke:none"
             d="m -1911.1944,1513.1052 c 0,9.088 -7.3161,16.4042 -16.4041,16.4042 9.088,0 16.4041,7.3163 16.4041,16.4043 0,-9.088 7.3163,-16.4043 16.4042,-16.4043 -9.0879,0 -16.4042,-7.3162 -16.4042,-16.4042 z" /><path
             id="path636"
             style="fill:#ffffff;fill-opacity:0.89775;stroke-width:0.525186;-inkscape-stroke:none"
             d="m -1792.0206,1509.0046 c 0,23.5685 -18.9739,42.5427 -42.5424,42.5427 23.5685,0 42.5424,18.9739 42.5424,42.5424 0,-23.5685 18.9739,-42.5424 42.5423,-42.5424 -23.5684,0 -42.5423,-18.9742 -42.5423,-42.5427 z" /><path
             id="path637"
             style="fill:#ffffff;fill-opacity:0.89775;stroke-width:0.466089;-inkscape-stroke:none"
             d="m -1816.9091,1408.3886 c 0,14.6382 -11.7843,26.4227 -26.4225,26.4227 14.6382,0 26.4225,11.7845 26.4225,26.4227 0,-14.6382 11.7846,-26.4227 26.4227,-26.4227 -14.6381,0 -26.4227,-11.7845 -26.4227,-26.4227 z" /><path
             id="path638"
             style="fill:#ffffff;fill-opacity:0.89775;stroke-width:0.466089;-inkscape-stroke:none"
             d="m -1934.5773,1424.6229 c 0,14.6382 -11.7843,26.4227 -26.4225,26.4227 14.6382,0 26.4225,11.7845 26.4225,26.4227 0,-14.6382 11.7846,-26.4227 26.4227,-26.4227 -14.6381,0 -26.4227,-11.7845 -26.4227,-26.4227 z" /></g></g><g
         id="g654"
         transform="matrix(0.6197729,0,0,0.6197729,-3156.0514,3314.778)"><path
           style="fill:#ffffff;fill-opacity:0.89775;stroke-width:8.24457;-inkscape-stroke:none"
           id="path639"
           sodipodi:type="arc"
           sodipodi:cx="271.27911"
           sodipodi:cy="-200.01277"
           sodipodi:rx="129.605"
           sodipodi:ry="129.605"
           sodipodi:start="0"
           sodipodi:end="6.2590314"
           sodipodi:open="true"
           sodipodi:arc-type="arc"
           d="M 400.88411,-200.01277 A 129.605,129.605 0 0 1 272.06173,-70.410139 129.605,129.605 0 0 1 141.68357,-198.44758 129.605,129.605 0 0 1 268.93139,-329.5965 129.605,129.605 0 0 1 400.8463,-203.14293" /><path
           id="path640"
           style="font-variation-settings:normal;opacity:1;vector-effect:none;fill:#d1d1d1;fill-opacity:1;stroke-width:1.97556;stroke-linecap:butt;stroke-linejoin:miter;stroke-miterlimit:4;stroke-dasharray:none;stroke-dashoffset:0;stroke-opacity:1;-inkscape-stroke:none;stop-color:#000000;stop-opacity:1"
           d="m 179.11107,-291.13086 a 129.605,129.605 0 0 0 -37.99458,92.80571 129.605,129.605 0 0 0 86.41178,120.291877 208.66405,208.66405 0 0 1 -60.08006,-143.298227 208.66405,208.66405 0 0 1 11.66286,-69.79936 z" /><path
           style="fill:#d0d0d0;fill-opacity:0.988235;stroke-width:1.97556;-inkscape-stroke:none"
           id="path641"
           sodipodi:type="arc"
           sodipodi:cx="215.69226"
           sodipodi:cy="-216.38303"
           sodipodi:rx="31.055901"
           sodipodi:ry="31.055901"
           sodipodi:start="0"
           sodipodi:end="6.2590314"
           sodipodi:open="true"
           sodipodi:arc-type="arc"
           d="m 246.74816,-216.38303 a 31.055901,31.055901 0 0 1 -30.86837,31.05534 31.055901,31.055901 0 0 1 -31.24117,-30.68028 31.055901,31.055901 0 0 1 30.49108,-31.42586 31.055901,31.055901 0 0 1 31.6094,30.30076" /><path
           style="fill:#d1d1d1;fill-opacity:1;stroke-width:1.22703;-inkscape-stroke:none"
           id="path642"
           sodipodi:type="arc"
           sodipodi:cx="296.19226"
           sodipodi:cy="-133.01593"
           sodipodi:rx="19.289"
           sodipodi:ry="19.289"
           sodipodi:start="0"
           sodipodi:end="6.2590314"
           sodipodi:open="true"
           sodipodi:arc-type="arc"
           d="m 315.48126,-133.01593 a 19.289,19.289 0 0 1 -19.17252,19.28865 19.289,19.289 0 0 1 -19.40407,-19.0557 19.289,19.289 0 0 1 18.93818,-19.51878 19.289,19.289 0 0 1 19.63278,18.81997" /><path
           style="fill:#d1d1d1;fill-opacity:1;stroke-width:0.762115;-inkscape-stroke:none"
           id="path643"
           sodipodi:type="arc"
           sodipodi:cx="364.68359"
           sodipodi:cy="-211.99327"
           sodipodi:rx="11.9805"
           sodipodi:ry="11.9805"
           sodipodi:start="0"
           sodipodi:end="6.2590314"
           sodipodi:open="true"
           sodipodi:arc-type="arc"
           d="m 376.66409,-211.99327 a 11.9805,11.9805 0 0 1 -11.90815,11.98028 11.9805,11.9805 0 0 1 -12.05197,-11.8356 11.9805,11.9805 0 0 1 11.7626,-12.12322 11.9805,11.9805 0 0 1 12.19403,11.68919" /><path
           style="fill:#d1d1d1;fill-opacity:1;stroke-width:0.47328;-inkscape-stroke:none"
           id="path644"
           sodipodi:type="arc"
           sodipodi:cx="190.68332"
           sodipodi:cy="-254.87892"
           sodipodi:rx="7.4400001"
           sodipodi:ry="7.4400001"
           sodipodi:start="0"
           sodipodi:end="6.2590314"
           sodipodi:open="true"
           sodipodi:arc-type="arc"
           d="m 198.12332,-254.87892 a 7.4400001,7.4400001 0 0 1 -7.39507,7.43986 7.4400001,7.4400001 0 0 1 -7.48439,-7.35001 7.4400001,7.4400001 0 0 1 7.30469,-7.52863 7.4400001,7.4400001 0 0 1 7.5726,7.25909" /><path
           style="fill:#d1d1d1;fill-opacity:1;stroke-width:1.97556;-inkscape-stroke:none"
           id="path645"
           sodipodi:type="arc"
           sodipodi:cx="298.77661"
           sodipodi:cy="-277.31311"
           sodipodi:rx="31.055901"
           sodipodi:ry="31.055901"
           sodipodi:start="0"
           sodipodi:end="6.2590314"
           sodipodi:open="true"
           sodipodi:arc-type="arc"
           d="m 329.83251,-277.31311 a 31.055901,31.055901 0 0 1 -30.86837,31.05533 31.055901,31.055901 0 0 1 -31.24116,-30.68028 31.055901,31.055901 0 0 1 30.49107,-31.42586 31.055901,31.055901 0 0 1 31.6094,30.30076" /><path
           style="fill:#ffffff;fill-opacity:1;stroke-width:1.31119;-inkscape-stroke:none"
           id="path646"
           sodipodi:type="arc"
           sodipodi:cx="189.51317"
           sodipodi:cy="-156.66237"
           sodipodi:rx="20.611967"
           sodipodi:ry="20.611967"
           sodipodi:start="0"
           sodipodi:end="6.2590314"
           sodipodi:open="true"
           sodipodi:arc-type="arc"
           d="m 210.12514,-156.66237 a 20.611967,20.611967 0 0 1 -20.48751,20.61159 20.611967,20.611967 0 0 1 -20.73493,-20.36267 20.611967,20.611967 0 0 1 20.23709,-20.8575 20.611967,20.611967 0 0 1 20.97933,20.11077" /><path
           style="fill:#d1d1d1;fill-opacity:1;stroke-width:1.22703;-inkscape-stroke:none"
           id="path647"
           sodipodi:type="arc"
           sodipodi:cx="189.51317"
           sodipodi:cy="-156.66237"
           sodipodi:rx="19.289"
           sodipodi:ry="19.289"
           sodipodi:start="0"
           sodipodi:end="6.2590314"
           sodipodi:open="true"
           sodipodi:arc-type="arc"
           d="m 208.80217,-156.66237 a 19.289,19.289 0 0 1 -19.17253,19.28865 19.289,19.289 0 0 1 -19.40406,-19.0557 19.289,19.289 0 0 1 18.93818,-19.51878 19.289,19.289 0 0 1 19.63278,18.81997" /><path
           style="fill:#d1d1d1;fill-opacity:1;stroke-width:0.762115;-inkscape-stroke:none"
           id="path648"
           sodipodi:type="arc"
           sodipodi:cx="228.87061"
           sodipodi:cy="-114.1003"
           sodipodi:rx="11.9805"
           sodipodi:ry="11.9805"
           sodipodi:start="0"
           sodipodi:end="6.2590314"
           sodipodi:open="true"
           sodipodi:arc-type="arc"
           d="m 240.85111,-114.1003 a 11.9805,11.9805 0 0 1 -11.90816,11.98028 11.9805,11.9805 0 0 1 -12.05197,-11.8356 11.9805,11.9805 0 0 1 11.76261,-12.12322 11.9805,11.9805 0 0 1 12.19402,11.68919" /><path
           style="fill:#f2f2f2;fill-opacity:1;stroke-width:0.557432;-inkscape-stroke:none"
           id="path649"
           sodipodi:type="arc"
           sodipodi:cx="165.22037"
           sodipodi:cy="-223.51733"
           sodipodi:rx="8.7628679"
           sodipodi:ry="8.7628679"
           sodipodi:start="0"
           sodipodi:end="6.2590314"
           sodipodi:open="true"
           sodipodi:arc-type="arc"
           d="m 173.98324,-223.51733 a 8.7628679,8.7628679 0 0 1 -8.70996,8.7627 8.7628679,8.7628679 0 0 1 -8.81514,-8.65688 8.7628679,8.7628679 0 0 1 8.60349,-8.86725 8.7628679,8.7628679 0 0 1 8.91905,8.54979" /><path
           style="fill:#d1d1d1;fill-opacity:1;stroke-width:0.47328;-inkscape-stroke:none"
           id="path650"
           sodipodi:type="arc"
           sodipodi:cx="165.22037"
           sodipodi:cy="-223.51733"
           sodipodi:rx="7.4400001"
           sodipodi:ry="7.4400001"
           sodipodi:start="0"
           sodipodi:end="6.2590314"
           sodipodi:open="true"
           sodipodi:arc-type="arc"
           d="m 172.66037,-223.51733 a 7.4400001,7.4400001 0 0 1 -7.39508,7.43986 7.4400001,7.4400001 0 0 1 -7.48438,-7.35001 7.4400001,7.4400001 0 0 1 7.30469,-7.52863 7.4400001,7.4400001 0 0 1 7.5726,7.25909" /><path
           style="fill:#d1d1d1;fill-opacity:1;stroke-width:0.294025;-inkscape-stroke:none"
           id="path651"
           sodipodi:type="arc"
           sodipodi:cx="299.19748"
           sodipodi:cy="-232.87955"
           sodipodi:rx="4.6220999"
           sodipodi:ry="4.6220999"
           sodipodi:start="0"
           sodipodi:end="6.2590314"
           sodipodi:open="true"
           sodipodi:arc-type="arc"
           d="m 303.81958,-232.87955 a 4.6220999,4.6220999 0 0 1 -4.59419,4.62202 4.6220999,4.6220999 0 0 1 -4.64967,-4.5662 4.6220999,4.6220999 0 0 1 4.53803,-4.67716 4.6220999,4.6220999 0 0 1 4.70448,4.50971" /><path
           style="fill:#d1d1d1;fill-opacity:1;stroke-width:0.182623;-inkscape-stroke:none"
           id="path652"
           sodipodi:type="arc"
           sodipodi:cx="267.08914"
           sodipodi:cy="-155.43478"
           sodipodi:rx="2.8708501"
           sodipodi:ry="2.8708501"
           sodipodi:start="0"
           sodipodi:end="6.2590314"
           sodipodi:open="true"
           sodipodi:arc-type="arc"
           d="m 269.95999,-155.43478 a 2.8708501,2.8708501 0 0 1 -2.85351,2.87079 2.8708501,2.8708501 0 0 1 -2.88798,-2.83612 2.8708501,2.8708501 0 0 1 2.81864,-2.90505 2.8708501,2.8708501 0 0 1 2.92201,2.80104" /><path
           style="fill:#d1d1d1;fill-opacity:1;stroke-width:0.113422;-inkscape-stroke:none"
           id="path653"
           sodipodi:type="arc"
           sodipodi:cx="256.40411"
           sodipodi:cy="-286.66754"
           sodipodi:rx="1.783"
           sodipodi:ry="1.783"
           sodipodi:start="0"
           sodipodi:end="6.2590314"
           sodipodi:open="true"
           sodipodi:arc-type="arc"
           d="m 258.18711,-286.66754 a 1.783,1.783 0 0 1 -1.77223,1.78297 1.783,1.783 0 0 1 -1.79364,-1.76144 1.783,1.783 0 0 1 1.75058,-1.80424 1.783,1.783 0 0 1 1.81477,1.73965" /><path
           style="fill:#d1d1d1;fill-opacity:1;stroke:#f9f9f9;stroke-width:0.843677;-inkscape-stroke:none"
           id="path654"
           sodipodi:type="arc"
           sodipodi:cx="228.87062"
           sodipodi:cy="-114.10029"
           sodipodi:rx="13.262667"
           sodipodi:ry="13.262667"
           sodipodi:start="0"
           sodipodi:end="6.2590314"
           sodipodi:open="true"
           sodipodi:arc-type="arc"
           d="m 242.13329,-114.10029 a 13.262667,13.262667 0 0 1 -13.18258,13.26243 13.262667,13.262667 0 0 1 -13.34179,-13.10226 13.262667,13.262667 0 0 1 13.02145,-13.42066 13.262667,13.262667 0 0 1 13.49905,12.94018" /></g></g></g></svg>
